Coordinates
version=1
nRows=27
nColumns=12
inDegrees=yes

Units are S.I. units (second, meters, Newtons, ...)
Angles are in degrees

endheader
time	SC_y	SC_z	SC_x	AC_y	AC_z	AC_x	GH_y	GH_z	GH_yy	EL_x	PS_y
       0.0              -43.01           21.5          59.75          60.67          6.485         -7.034         -67.39          42.08         -108.6          69.77          43.56
   0.04731              -43.01           21.5          59.75          60.66          6.482         -7.033         -67.37          42.08         -108.6          69.76          43.56
   0.09462              -43.01           21.5          59.75          60.66           6.48         -7.031         -67.35          42.09         -108.6          69.76          43.57
    0.1419              -43.01           21.5          59.75          60.66          6.477         -7.029         -67.33           42.1         -108.6          69.76          43.58
    0.1892              -43.01           21.5          59.75          60.65          6.474         -7.028          -67.3          42.11         -108.6          69.75          43.59
    0.2366              -43.02          21.51          59.75          60.65          6.471         -7.026         -67.28          42.11         -108.6          69.74           43.6
    0.2839              -43.02          21.51          59.75          60.65          6.468         -7.024         -67.25          42.12         -108.6          69.74          43.61
    0.3312              -43.02          21.51          59.75          60.64          6.464         -7.022         -67.22          42.13         -108.6          69.73          43.63
    0.3785              -43.02          21.51          59.76          60.64          6.461          -7.02         -67.19          42.14         -108.6          69.73          43.64
    0.4258              -43.03          21.51          59.76          60.63          6.457         -7.017         -67.15          42.16         -108.6          69.72          43.65
    0.4731              -43.03          21.51          59.76          60.63          6.452         -7.015         -67.12          42.17         -108.7          69.71          43.67
    0.5204              -43.03          21.51          59.76          60.62          6.448         -7.012         -67.08          42.18         -108.7           69.7          43.68
    0.5677              -43.04          21.51          59.76          60.61          6.443         -7.009         -67.04           42.2         -108.7           69.7           43.7
    0.6151              -43.04          21.52          59.76          60.61          6.437         -7.006         -66.99          42.21         -108.7          69.69          43.72
    0.6624              -43.05          21.52          59.76           60.6          6.431         -7.002         -66.94          42.23         -108.7          69.68          43.74
    0.7097              -43.05          21.52          59.77          60.59          6.425         -6.998         -66.89          42.25         -108.7          69.67          43.76
     0.757              -43.06          21.52          59.77          60.58          6.418         -6.994         -66.83          42.27         -108.7          69.65          43.78
    0.8043              -43.06          21.52          59.77          60.57          6.411          -6.99         -66.77          42.29         -108.8          69.64          43.81
    0.8516              -43.07          21.52          59.77          60.56          6.402         -6.985          -66.7          42.31         -108.8          69.63          43.84
    0.8989              -43.08          21.53          59.78          60.55          6.393         -6.979         -66.63          42.34         -108.8          69.61          43.87
    0.9462              -43.08          21.53          59.78          60.54          6.384         -6.973         -66.55          42.37         -108.8          69.59           43.9
    0.9935              -43.09          21.53          59.78          60.52          6.373         -6.967         -66.45           42.4         -108.9          69.58          43.94
     1.041               -43.1          21.54          59.79          60.51          6.361          -6.96         -66.36          42.43         -108.9          69.55          43.98
     1.088              -43.11          21.54          59.79          60.49          6.347         -6.952         -66.24          42.47         -108.9          69.53          44.03
     1.135              -43.12          21.54           59.8          60.47          6.333         -6.943         -66.12          42.51         -109.0          69.51          44.08
     1.183              -43.13          21.55           59.8          60.45          6.316         -6.933         -65.98          42.56         -109.0          69.48          44.13
      1.23              -43.15          21.55          59.81          60.43          6.298         -6.922         -65.83          42.61         -109.1          69.45           44.2
